<svg xmlns="http://www.w3.org/2000/svg" viewBox="0 0 60 75" x="0px" y="0px"><title>Bathroom Objects - Solid - 003 - Toilet Plan</title><g data-name="03-Toilet Plan"><path d="M17,16H43a3,3,0,0,0,3-3V1a1,1,0,0,0-1-1H15a1,1,0,0,0-1,1V13A3,3,0,0,0,17,16Z"/><path d="M41.78,18.62a1,1,0,0,0-.93-.62H19.15a1,1,0,0,0-.93.62c-8,19.27-4.39,29.7-1.43,34.27A15.27,15.27,0,0,0,30,60a15.27,15.27,0,0,0,13.21-7.11C46.17,48.32,49.8,37.89,41.78,18.62ZM34,21a1,1,0,0,1,2,0v1a1,1,0,1,1-2,0ZM24,21a1,1,0,0,1,2,0v1a1,1,0,0,1-2,0Zm6,34c-6.07,0-11-6.73-11-15s4.93-15,11-15,11,6.73,11,15S36.07,55,30,55Z"/><path d="M33,33H27a1,1,0,0,0-1,1v6c0,1.08,2.37,2,4,2s4-.92,4-2V34A1,1,0,0,0,33,33Z"/></g></svg>