<svg xmlns="http://www.w3.org/2000/svg" xmlns:xlink="http://www.w3.org/1999/xlink" viewBox="0 0 24 32.5" version="1.1" x="0px" y="0px"><title>rotate left</title><desc>Created with Sketch.</desc><g stroke="none" stroke-width="1" fill="none" fill-rule="evenodd"><g transform="translate(-940.000000, -366.000000)" fill="#000000" fill-rule="nonzero"><path d="M953.923077,375.846154 C955.027646,375.846154 955.923077,376.741584 955.923077,377.846154 L955.923077,389.769231 C955.923077,390.8738 955.027646,391.769231 953.923077,391.769231 L942,391.769231 C940.895431,391.769231 940,390.8738 940,389.769231 L940,377.846154 C940,376.741584 940.895431,375.846154 942,375.846154 L953.923077,375.846154 Z M953.923077,377.846154 L942,377.846154 L942,389.769231 L953.923077,389.769231 L953.923077,377.846154 Z M952.527309,372.24099 C952.917833,372.631515 952.917833,373.264679 952.527309,373.655204 C952.166825,374.015688 951.599594,374.043417 951.207303,373.738392 L951.113096,373.655204 L947.43194,369.974048 L951.113096,366.292893 C951.50362,365.902369 952.136785,365.902369 952.527309,366.292893 C952.887793,366.653377 952.915523,367.220608 952.610498,367.612899 L952.527309,367.707107 L951.431,368.803 L953.056383,368.80396 C958.932385,368.80396 963.71377,373.490571 963.86648,379.329734 L963.870243,379.617819 C963.870243,380.170104 963.422527,380.617819 962.870243,380.617819 C962.317958,380.617819 961.870243,380.170104 961.870243,379.617819 C961.870243,374.750059 957.924143,370.80396 953.056383,370.80396 L953.056383,370.80396 L951.089,370.803 L952.527309,372.24099 Z"/></g></g><text x="0" y="41" fill="#000000" font-size="5px" font-weight="bold" font-family="'Helvetica Neue', Helvetica, Arial-Unicode, Arial, Sans-serif">Created by Kirk Draheim</text><text x="0" y="46" fill="#000000" font-size="5px" font-weight="bold" font-family="'Helvetica Neue', Helvetica, Arial-Unicode, Arial, Sans-serif">from the Noun Project</text></svg>