<svg xmlns="http://www.w3.org/2000/svg" xmlns:xlink="http://www.w3.org/1999/xlink" version="1.1" x="0px" y="0px" viewBox="0 0 32 40" style="enable-background:new 0 0 32 32;" xml:space="preserve"><g><path d="M4.3999,18.12305c-0.55225,0-1,0.44775-1,1v8.97021c0,0.55225,0.44775,1,1,1h4.22998c0.55225,0,1-0.44775,1-1   s-0.44775-1-1-1H5.3999v-7.97021C5.3999,18.5708,4.95215,18.12305,4.3999,18.12305z"/><path d="M27.59961,29.09326c0.55273,0,1-0.44775,1-1v-8.97021c0-0.55225-0.44727-1-1-1s-1,0.44775-1,1v7.97021h-3.22949   c-0.55273,0-1,0.44775-1,1s0.44727,1,1,1H27.59961z"/><path d="M19.01758,29.09326c0.55273,0,1-0.44775,1-1s-0.44727-1-1-1h-6.03564c-0.55225,0-1,0.44775-1,1s0.44775,1,1,1H19.01758z"/><path d="M30,14.84998h-1.40002v-10.94c0-0.56-0.44-1-1-1H4.40002c-0.56,0-1,0.44-1,1v10.94H2c-0.54999,0-1,0.45001-1,1   c0,0.56,0.45001,1,1,1h28c0.54999,0,1-0.44,1-1C31,15.29999,30.54999,14.84998,30,14.84998z"/></g><text x="0" y="47" fill="#000000" font-size="5px" font-weight="bold" font-family="'Helvetica Neue', Helvetica, Arial-Unicode, Arial, Sans-serif">Created by Barudak Lier</text><text x="0" y="52" fill="#000000" font-size="5px" font-weight="bold" font-family="'Helvetica Neue', Helvetica, Arial-Unicode, Arial, Sans-serif">from the Noun Project</text></svg>