<svg xmlns="http://www.w3.org/2000/svg" xmlns:xlink="http://www.w3.org/1999/xlink" version="1.1" x="0px" y="0px" viewBox="0 0 1024 1280" style="enable-background:new 0 0 1024 1024;" xml:space="preserve"><g><g><path d="M716.5,256.5c0,20.9,0,41.9,0,62.8c0,49.9,0,99.7,0,149.6c0,60.5,0,120.9,0,181.4c0,51.7,0,103.4,0,155.1    c0,24.6,0.1,49.2,0,73.9c0,2.1-0.1,4.2-0.4,6.2c0.5-4,1.1-8,1.6-12c-0.5,3.1-1.3,6.1-2.5,9c1.5-3.6,3-7.2,4.5-10.7    c-1.3,2.8-2.7,5.4-4.6,7.9c2.3-3,4.7-6.1,7-9.1c-2.2,2.8-4.6,5.2-7.3,7.3c3-2.3,6.1-4.7,9.1-7c-2.5,1.8-5.1,3.3-7.9,4.6    c3.6-1.5,7.2-3,10.7-4.5c-2.9,1.2-5.9,2-9,2.5c4-0.5,8-1.1,12-1.6c-5.2,0.7-10.5,0.4-15.8,0.4c-10.2,0-20.3,0-30.5,0    c-34.1,0-68.1,0-102.2,0c-41.4,0-82.8,0-124.2,0c-35.5,0-71,0-106.5,0c-16.8,0-33.6,0.2-50.4,0c-2,0-3.9-0.1-5.9-0.4    c4,0.5,8,1.1,12,1.6c-3.1-0.5-6.1-1.3-9-2.5c3.6,1.5,7.2,3,10.7,4.5c-2.8-1.3-5.4-2.7-7.9-4.6c3,2.3,6.1,4.7,9.1,7    c-2.8-2.2-5.2-4.6-7.3-7.3c2.3,3,4.7,6.1,7,9.1c-1.8-2.5-3.3-5.1-4.6-7.9c1.5,3.6,3,7.2,4.5,10.7c-1.2-2.9-2-5.9-2.5-9    c0.5,4,1.1,8,1.6,12c-0.9-6.9-0.4-14.2-0.4-21.2c0-15.1,0-30.2,0-45.3c0-49.9,0-99.7,0-149.6c0-60.5,0-120.9,0-181.4    c0-52.1,0-104.2,0-156.4c0-24.8-0.1-49.7,0-74.5c0-2.1,0.1-4.2,0.4-6.3c-0.5,4-1.1,8-1.6,12c0.5-3.1,1.3-6.1,2.5-9    c-1.5,3.6-3,7.2-4.5,10.7c1.3-2.8,2.7-5.4,4.6-7.9c-2.3,3-4.7,6.1-7,9.1c2.2-2.8,4.6-5.2,7.3-7.3c-3,2.3-6.1,4.7-9.1,7    c2.5-1.8,5.1-3.3,7.9-4.6c-3.6,1.5-7.2,3-10.7,4.5c2.9-1.2,5.9-2,9-2.5c-4,0.5-8,1.1-12,1.6c5.2-0.7,10.5-0.4,15.8-0.4    c10.2,0,20.3,0,30.5,0c34.1,0,68.1,0,102.2,0c41.4,0,82.8,0,124.2,0c35.5,0,71,0,106.5,0c16.8,0,33.6-0.2,50.4,0    c2,0,3.9,0.1,5.9,0.4c-4-0.5-8-1.1-12-1.6c3.1,0.5,6.1,1.3,9,2.5c-3.6-1.5-7.2-3-10.7-4.5c2.8,1.3,5.4,2.7,7.9,4.6    c-3-2.3-6.1-4.7-9.1-7c2.8,2.2,5.2,4.6,7.3,7.3c-2.3-3-4.7-6.1-7-9.1c1.8,2.5,3.3,5.1,4.6,7.9c-1.5-3.6-3-7.2-4.5-10.7    c1.2,2.9,2,5.9,2.5,9c-0.5-4-1.1-8-1.6-12C716.3,252.9,716.5,254.7,716.5,256.5c0.2,11.7,4.9,23.5,13.2,31.8    c7.8,7.8,20.6,13.7,31.8,13.2c11.6-0.5,23.7-4.3,31.8-13.2c8-8.7,13.4-19.7,13.2-31.8c-0.7-36.6-24.4-68.5-59.5-79.1    c-8.3-2.5-17.2-3.2-25.8-3.2c-10.9,0-21.9,0-32.8,0c-45,0-90,0-135.1,0c-52.3,0-104.5,0-156.8,0c-31.1,0-62.3,0-93.4,0    c-8.1,0-16.2,0.7-24.1,2.7c-14.7,3.6-30.2,12.7-40,24.3c-13,15.6-19.9,32.2-21.4,52.5c-0.4,5.2-0.1,10.5-0.1,15.7    c0,30.5,0,60.9,0,91.4c0,49,0,97.9,0,146.9c0,53.6,0,107.3,0,160.9c0,45.4,0,90.8,0,136.2c0,24,0,48.1,0,72.1c0,1.7,0,3.5,0.1,5.2    c1.1,20.5,8.3,37.6,21.4,53.2c9.8,11.6,24.7,20.3,39.3,24.2c12.4,3.3,24.7,2.8,37.3,2.8c38.9,0,77.8,0,116.7,0    c53.4,0,106.9,0,160.3,0c38.7,0,77.4,0,116.2,0c12.8,0,25.7,0.6,38.2-3.2c34.9-10.5,58.6-42,59.5-78.4c0-1.3,0-2.7,0-4    c0-24.2,0-48.4,0-72.6c0-45.5,0-91,0-136.4c0-53.8,0-107.6,0-161.4c0-48.7,0-97.5,0-146.2c0-30.3,0-60.6,0-90.9    c0-4.2,0-8.4,0-12.6c0-11.5-5-23.7-13.2-31.8c-7.8-7.8-20.6-13.7-31.8-13.2c-11.6,0.5-23.7,4.3-31.8,13.2    C721.6,233.5,716.5,244.3,716.5,256.5z"/></g></g><g><g><path d="M467,106.8c0,24.4,0,48.8,0,73.1c0,39,0,78.1,0,117.1c0,8.9,0,17.8,0,26.7c0,11.5,5,23.7,13.2,31.8    c7.8,7.8,20.6,13.7,31.8,13.2c11.6-0.5,23.7-4.3,31.8-13.2c8.1-8.8,13.2-19.6,13.2-31.8c0-24.4,0-48.8,0-73.1c0-39,0-78.1,0-117.1    c0-8.9,0-17.8,0-26.7c0-11.5-5-23.7-13.2-31.8c-7.8-7.8-20.6-13.7-31.8-13.2c-11.6,0.5-23.7,4.3-31.8,13.2    C472.1,83.8,467,94.6,467,106.8L467,106.8z"/></g></g><g><g><path d="M623,151.8c14,0,28,0,42,0c11.5,0,23.7-5,31.8-13.2c7.8-7.8,13.7-20.6,13.2-31.8    c-0.5-11.6-4.3-23.7-13.2-31.8c-8.8-8.1-19.6-13.2-31.8-13.2c-14,0-28,0-42,0c-11.5,0-23.7,5-31.8,13.2    c-7.8,7.8-13.7,20.6-13.2,31.8c0.5,11.6,4.3,23.7,13.2,31.8C600,146.7,610.8,151.8,623,151.8L623,151.8z"/></g></g><g><g><path d="M359,151.8c14,0,28,0,42,0c11.5,0,23.7-5,31.8-13.2c7.8-7.8,13.7-20.6,13.2-31.8    c-0.5-11.6-4.3-23.7-13.2-31.8c-8.8-8.1-19.6-13.2-31.8-13.2c-14,0-28,0-42,0c-11.5,0-23.7,5-31.8,13.2    c-7.8,7.8-13.7,20.6-13.2,31.8c0.5,11.6,4.3,23.7,13.2,31.8C336,146.7,346.8,151.8,359,151.8L359,151.8z"/></g></g><g><g><path d="M512,800c0.3,0,0.5,0,0.8,0c-4-0.5-8-1.1-12-1.6c0.8,0.1,1.4,0.3,2.2,0.6c-3.6-1.5-7.2-3-10.7-4.5    c0.5,0.2,0.9,0.5,1.3,0.8c-3-2.3-6.1-4.7-9.1-7c0.6,0.5,1.1,1,1.6,1.6c-2.3-3-4.7-6.1-7-9.1c0.3,0.4,0.5,0.8,0.8,1.3    c-1.5-3.6-3-7.2-4.5-10.7c0.3,0.8,0.5,1.4,0.6,2.2c-0.5-4-1.1-8-1.6-12c0.1,0.5,0.1,1.1,0,1.6c0.5-4,1.1-8,1.6-12    c-0.1,0.8-0.3,1.4-0.6,2.2c1.5-3.6,3-7.2,4.5-10.7c-0.2,0.5-0.5,0.9-0.8,1.3c2.3-3,4.7-6.1,7-9.1c-0.5,0.6-1,1.1-1.6,1.6    c3-2.3,6.1-4.7,9.1-7c-0.4,0.3-0.8,0.5-1.3,0.8c3.6-1.5,7.2-3,10.7-4.5c-0.8,0.3-1.4,0.5-2.2,0.6c4-0.5,8-1.1,12-1.6    c-0.5,0.1-1.1,0.1-1.6,0c4,0.5,8,1.1,12,1.6c-0.8-0.1-1.4-0.3-2.2-0.6c3.6,1.5,7.2,3,10.7,4.5c-0.5-0.2-0.9-0.5-1.3-0.8    c3,2.3,6.1,4.7,9.1,7c-0.6-0.5-1.1-1-1.6-1.6c2.3,3,4.7,6.1,7,9.1c-0.3-0.4-0.5-0.8-0.8-1.3c1.5,3.6,3,7.2,4.5,10.7    c-0.3-0.8-0.5-1.4-0.6-2.2c0.5,4,1.1,8,1.6,12c-0.1-0.5-0.1-1.1,0-1.6c-0.5,4-1.1,8-1.6,12c0.1-0.8,0.3-1.4,0.6-2.2    c-1.5,3.6-3,7.2-4.5,10.7c0.2-0.5,0.5-0.9,0.8-1.3c-2.3,3-4.7,6.1-7,9.1c0.5-0.6,1-1.1,1.6-1.6c-3,2.3-6.1,4.7-9.1,7    c0.4-0.3,0.8-0.5,1.3-0.8c-3.6,1.5-7.2,3-10.7,4.5c0.8-0.3,1.4-0.5,2.2-0.6c-4,0.5-8,1.1-12,1.6C511.5,800,511.7,800,512,800    c11.9-0.6,23.2-4.6,31.8-13.2c4.4-4.1,7.5-8.9,9.3-14.5c2.8-5.4,4.1-11.1,3.9-17.3c-0.5-11.6-4.3-23.7-13.2-31.8    c-8.5-7.8-19.9-13.8-31.8-13.2c-3.9,0.2-9.7,0.7-13.5,1.8c-2.4,0.7-4.6,1.8-6.8,2.7c-2.9,1.2-4.4,1.7-6.7,3c-3,2.3-6.1,4.7-9.1,7    c-0.3,0.2-0.6,0.5-0.8,0.7c-0.3,0.3-0.5,0.5-0.7,0.8c-2.3,3-4.7,6.1-7,9.1c-2.3,3.8-3.7,7.1-5.3,12c-1.6,4.8-2.3,9.9-2.3,14.9    s0.7,10.2,2.3,14.9c1.6,4.9,3,8.2,5.3,12c2.3,3,4.7,6.1,7,9.1c0.2,0.3,0.5,0.6,0.7,0.8c0.3,0.3,0.5,0.5,0.8,0.7    c3,2.3,6.1,4.7,9.1,7c2.2,1.3,4,1.9,6.7,3c2.2,0.9,4.5,2.1,6.8,2.7c2.2,0.4,4.5,0.7,6.7,0.9c2.2,0.5,4.5,0.7,6.8,0.8    c13.2,0.5,27.5-5.7,36.7-15c5.4-5.5,8.2-10.2,11-16.9c0.9-2.2,2.1-4.5,2.7-6.8c0.4-2.2,0.7-4.5,0.9-6.7c0.4-2.1,0.7-4.2,0.8-6.4    c0-4-0.8-9.2-1.6-13.1c-0.2-0.8-0.3-1.4-0.6-2.2c-2.8-8.2-6.5-15.6-12.8-21.7c-3.4-3.4-7.3-6.4-11.5-8.8    c-8.3-4.8-16.2-6.3-25.7-6.8c-6.2-0.2-12,1.1-17.3,3.9c-5.6,1.8-10.4,4.9-14.5,9.3c-4.4,4.1-7.5,8.9-9.3,14.5    c-2.8,5.4-4.1,11.1-3.9,17.3c0.5,11.6,4.3,23.7,13.2,31.8c3,2.3,6.1,4.7,9.1,7C496.3,797.9,503.9,800,512,800z"/></g></g><text x="0" y="1039" fill="#000000" font-size="5px" font-weight="bold" font-family="'Helvetica Neue', Helvetica, Arial-Unicode, Arial, Sans-serif">Created by shashank singh</text><text x="0" y="1044" fill="#000000" font-size="5px" font-weight="bold" font-family="'Helvetica Neue', Helvetica, Arial-Unicode, Arial, Sans-serif">from the Noun Project</text></svg>