<svg xmlns="http://www.w3.org/2000/svg" xmlns:xlink="http://www.w3.org/1999/xlink" version="1.1" x="0px" y="0px" viewBox="0 0 1024 1280" style="enable-background:new 0 0 1024 1024;" xml:space="preserve"><g><g><g><path d="M789.2,554.9c0,4.7-0.4,9.3-0.9,14c-0.2,2.1,0.5-3,0.1-0.9c-0.1,0.5-0.2,1-0.2,1.5c-0.2,1-0.4,2-0.6,3     c-0.5,2.5-1.1,5.1-1.7,7.6c-1.2,4.5-2.7,9-4.4,13.3c-0.6,1.6-1.1,2.6-0.1,0.3c-0.5,1.1-1,2.3-1.5,3.4c-1,2.2-2.2,4.5-3.3,6.7     c-2.3,4.3-4.8,8.5-7.5,12.5c-1.3,2-2.7,3.9-4.1,5.9c-2.2,3,1-1.1-0.7,1c-0.9,1.2-1.9,2.3-2.8,3.5c-6.8,8.1-14.3,15.6-22.3,22.4     c-2,1.7-4,3.4-6.1,5.1c-0.6,0.5-3.9,3-1.4,1.1c-1.2,0.9-2.3,1.8-3.5,2.6c-4.6,3.4-9.4,6.6-14.3,9.7     c-10.4,6.6-21.2,12.4-32.4,17.7c-2.7,1.3-5.5,2.5-8.3,3.7c-0.7,0.3-3.8,1.6-1.6,0.7c-1.8,0.7-3.5,1.4-5.3,2.1     c-6.1,2.4-12.2,4.7-18.4,6.7c-13.1,4.4-26.4,8.1-39.9,11.1c-6.9,1.5-13.8,2.9-20.7,4.1c-3.4,0.6-6.8,1.1-10.2,1.6     c-0.8,0.1-1.6,0.2-2.4,0.3c-0.3,0-3.5,0.5-2,0.3c1.4-0.2-1.2,0.2-1.2,0.2c-1.1,0.1-2.1,0.3-3.2,0.4c-15,1.8-30.1,2.9-45.3,3.2     c-15.1,0.3-30.2,0-45.3-1.1c-7.3-0.5-14.7-1.2-22-2.1c-5.8-0.7-12.2-1.6-19.7-3c-26.9-4.7-53.5-11.9-78.9-22.1     c-1.3-0.5-2.6-1.1-4-1.6c-1.6-0.7,0.1,0,0.3,0.1c-0.9-0.4-1.7-0.7-2.6-1.1c-3-1.3-5.9-2.6-8.9-4c-5.5-2.6-11-5.4-16.4-8.3     c-10.4-5.7-20.5-12.1-30.1-19.1c-1-0.7-2-1.5-3-2.2c2.3,1.7-0.6-0.5-1.4-1.1c-2.2-1.8-4.4-3.6-6.6-5.5c-4.1-3.5-8-7.2-11.7-11     c-3.6-3.7-7.1-7.5-10.4-11.5c-0.8-1-1.7-2-2.5-3.1c-1.8-2.2,1.3,1.8-0.4-0.5c-1.5-2.1-3-4.2-4.5-6.3c-2.8-4.2-5.4-8.5-7.8-13     c-1.1-2-2.1-4.1-3.1-6.2c-0.4-1-0.8-1.9-1.3-2.9c-0.9-1.9,1,2.6,0.3,0.7c-0.2-0.7-0.5-1.3-0.8-1.9c-1.7-4.4-3.1-8.8-4.3-13.3     c-0.6-2.2-1.1-4.4-1.5-6.5c-0.2-1.2-0.5-2.4-0.7-3.6c-0.1-0.5-0.1-1-0.2-1.5c-0.4-2,0.3,3,0.1,0.9c-1-9.6-1.1-18.9,0.1-28.5     c-0.3,2.4-0.2,1.8,0.1-0.1c0.2-1.2,0.4-2.4,0.7-3.6c0.5-2.4,1-4.7,1.6-7c1.2-4.5,2.7-9,4.4-13.3c0.3-0.6,0.5-1.3,0.8-1.9     c0,0-1.2,2.7-0.5,1.2c0.5-1,0.9-1.9,1.3-2.9c1.1-2.4,2.3-4.8,3.6-7.1c2.3-4.3,4.9-8.5,7.6-12.5c1.3-2,2.8-3.9,4.2-5.9     c1.7-2.3-1.4,1.7,0.4-0.5c0.9-1.2,1.9-2.3,2.8-3.5c3.3-4,6.8-7.8,10.5-11.5c3.8-3.8,7.7-7.5,11.8-11c2.2-1.9,4.4-3.7,6.6-5.5     c0.8-0.7,2.9-2.3,0.9-0.7c1.3-1,2.7-2,4-3c9.5-6.9,19.4-13.1,29.7-18.7c5.4-2.9,10.9-5.7,16.4-8.3c2.7-1.3,5.5-2.5,8.3-3.7     c0.9-0.4,1.7-0.7,2.6-1.1c-0.3,0.1-1.9,0.8-0.3,0.1c1.8-0.7,3.5-1.4,5.3-2.1c12.3-4.9,24.9-9,37.6-12.6     c13.7-3.8,27.5-6.9,41.5-9.3c14-2.4,25.6-3.8,41-4.9c30.2-2.1,60.5-1.4,90.6,2.3c0.8,0.1,1.6,0.2,2.4,0.3c0.3,0,2.9,0.4,0.8,0.1     c1.6,0.2,3.2,0.4,4.8,0.7c3.7,0.5,7.3,1.1,11,1.8c6.9,1.2,13.8,2.6,20.7,4.1c13.5,3,26.8,6.8,39.9,11.2     c6.2,2.1,12.3,4.3,18.3,6.8c1.5,0.6,3.1,1.2,4.6,1.9c-2.2-0.9,0.9,0.4,1.6,0.7c3,1.3,5.9,2.6,8.9,4c11.1,5.2,21.9,11.1,32.3,17.7     c4.8,3.1,9.6,6.3,14.2,9.7c0.5,0.4,3.8,2.8,2.5,1.8c-1.3-1,1.5,1.1,1.9,1.5c2.2,1.8,4.4,3.6,6.6,5.5c8.1,7,15.7,14.6,22.5,22.9     c0.7,0.9,1.4,1.8,2.1,2.6c1.7,2.1-1.3-1.8,0.7,1c1.5,2.1,3,4.2,4.5,6.3c2.7,4,5.2,8.2,7.5,12.5c1.1,2,2.1,4.1,3.1,6.2     c0.5,1.1,1,2.2,1.5,3.4c-1.4-3.1,0,0,0.5,1.3c1.7,4.4,3.1,8.8,4.3,13.4c0.6,2.2,1,4.4,1.5,6.6c0.2,1,0.4,2,0.6,3     c0.1,0.7,0.2,1.4,0.3,2c0,0-0.4-3.2-0.2-1.4C788.8,545.6,789.1,550.2,789.2,554.9c0,7.8,6.9,15.4,15,15c8.1-0.4,15-6.6,15-15     c-0.2-44.9-24.4-85.2-57.5-114.1c-40.7-35.6-92.5-57.5-144.9-69.3c-61.8-14-126.4-15.1-188.7-4.1     c-53.1,9.3-106.8,28.3-150.2,61.1c-36.8,27.7-66.1,65.3-72,112c-5.6,44.2,14.7,86.5,45,117.6c36.5,37.4,86.1,61.1,135.9,75.1     c59.6,16.8,123.5,20.8,184.9,13c56.1-7.1,112.4-23.5,160.2-54.5c37.9-24.6,72.3-60,83.5-105.1c2.6-10.3,3.9-21.1,4-31.7     c0-7.8-6.9-15.4-15-15C796,540.3,789.2,546.5,789.2,554.9z"/></g></g><g><g><path d="M859.8,289c0.9,0,5.8,0.8,2.8,0.1c1.5,0.4,3,0.7,4.5,1.1c0.4,0.1,3,1,1.3,0.4c-1.6-0.6,0.4,0.2,0.6,0.3     c1.7,0.9,3.4,1.9,5,2.9c1.9,1.2-1.6-1.5,0,0c0.6,0.6,1.3,1.1,1.9,1.7c1.1,1,2.1,2.1,3,3.3c-1.9-2.4,0.9,1.6,1.3,2.3     c0.5,0.9,2.1,5.1,1.2,2.3c0.6,1.7,1,3.4,1.5,5.1c0.2,0.6,0.4,2.9,0.1,0c0.1,0.7,0.1,1.4,0.2,2c0,0.8,0.1,1.5,0.1,2.3     c0,0.8,0,1.5,0,2.3c0,10,0,20,0,30c0,38,0,76,0,114.1c0,30.6,0,61.1,0,91.7c0,17.9-1.2,33.3-5.6,50.3     c-4.5,17.6-10.6,32.2-19.4,47.9c-3.2,5.6-6.6,11.1-10.2,16.4c-1.7,2.5-3.5,5-5.3,7.5c-1,1.3-2,2.6-3,3.9c1.8-2.4-0.8,1-1.5,1.8     c-8.2,10.2-17.2,19.8-26.7,28.8c-4.9,4.6-10,9.1-15.2,13.4c-2.6,2.1-5.2,4.2-7.8,6.2c2.4-1.8-1.8,1.3-2.3,1.7     c-1.4,1.1-2.9,2.1-4.4,3.2c-23.7,17.1-49.4,31.2-76.2,42.7c2.1-0.9-0.1,0.1-0.5,0.2c-0.9,0.4-1.8,0.8-2.7,1.1     c-1.6,0.7-3.2,1.3-4.8,1.9c-3.7,1.5-7.4,2.9-11.2,4.2c-7.4,2.7-14.8,5.2-22.3,7.5c-15.4,4.8-31,8.8-46.8,12     c-8.1,1.7-16.2,3.1-24.4,4.4c-1.9,0.3-3.7,0.6-5.6,0.8c-0.4,0.1-6.2,0.9-4.1,0.6c-4.3,0.6-8.7,1.1-13,1.5     c-17.1,1.8-34.4,2.8-51.6,3c-34.2,0.4-67.9-2.2-99.7-8c-31.4-5.7-62.3-14.2-92-25.9c-2.9-1.1-7.8-3.1-9.2-3.7     c0.6,0.3-2.8-1.2-3.6-1.6c-2-0.9-4-1.8-6-2.7c-6.8-3.1-13.5-6.4-20.1-9.8c-12.8-6.7-25.2-14.1-37.2-22.2     c-2.8-1.9-5.6-3.9-8.4-5.8c-1.3-0.9-2.6-1.8-3.8-2.8c-0.7-0.5-1.4-1.1-2.2-1.6c0.1,0.1-3.1-2.3-1.7-1.3c1,0.8-2.1-1.7-2.7-2.1     c-1.4-1.1-2.8-2.2-4.1-3.3c-2.7-2.2-5.4-4.5-8-6.8c-9.9-8.7-19.3-18.1-28-28.1c-2-2.4-4.1-4.8-6-7.2c-0.9-1.1-1.8-2.3-2.7-3.4     c2,2.5-1.1-1.5-1.8-2.4c-3.7-5.1-7.3-10.3-10.6-15.6c-8.9-14.2-15.8-28.2-20.8-43.4c-6.9-20.9-9.5-39.4-9.5-61.1     c0-28.8,0-57.6,0-86.4c0-38.7,0-77.3,0-116c0-11.3,0-22.5,0-33.8c0-2-0.1-4,0-6c0-0.9,0.1-1.8,0.2-2.7c-0.1,0.7-0.6,2.8,0.1,0     c0.4-1.5,0.8-3,1.2-4.4c0.6-2.2-1,2-0.1,0c0.3-0.6,0.6-1.2,0.9-1.7c0.4-0.8,0.8-1.5,1.3-2.2c0.2-0.3,2.2-3.2,1-1.6     c-0.9,1.1,1.7-1.9,2.2-2.4c0.6-0.6,4.3-3.5,1.9-1.8c1.4-1,2.9-1.9,4.4-2.7c0.6-0.3,1.2-0.6,1.7-0.9c1.5-0.7-2,0.5,0.7-0.2     c1.7-0.4,3.4-0.9,5.1-1.3c-2.7,0.6,1,0,2.1,0c0.3,0,0.5,0,0.8,0c0.3,0,0.6,0,0.9,0c1.5,0,2.9,0,4.4,0c6.2,0,12.3,0,18.5,0     c23.2,0,46.3,0,69.5,0c33.8,0,67.6,0,101.3,0c39.7,0,79.4,0,119.1,0c41,0,82,0,123,0c37.6,0,75.2,0,112.8,0c29.6,0,59.1,0,88.7,0     c16.9,0,33.7,0,50.6,0C855.4,289,857.6,289,859.8,289c7.8,0,15.4-6.9,15-15c-0.4-8.1-6.6-15-15-15c-9.4,0-18.8,0-28.2,0     c-24.9,0-49.7,0-74.6,0c-35.2,0-70.5,0-105.7,0c-41,0-81.9,0-122.9,0c-41.6,0-83.2,0-124.8,0c-37.2,0-74.3,0-111.5,0     c-28.1,0-56.2,0-84.3,0c-13.9,0-27.8,0-41.7,0c-16.6,0-32.7,6.3-43.2,19.5c-8,9.9-12.1,21.6-12.3,34.4c0,2.7,0,5.3,0,8     c0,32.6,0,65.2,0,97.9c0,37.7,0,75.4,0,113.1c0,8.2,0,16.4,0,24.6c0.1,32.5,7.8,64.2,21.8,93.6c24.9,52.2,69,93.6,117.8,123.4     c54.9,33.6,117.9,54,181.4,62.9c70,9.8,141.7,7.1,210.5-9.5c61-14.8,119.6-40.9,169-79.8c47.9-37.7,87-90.5,98.2-151.4     c5.2-28.6,3.7-58.2,3.7-87.2c0-40.2,0-80.4,0-120.6c0-25,0.3-50,0-75c-0.3-29.6-23.8-53.4-53.4-53.9c-7.8-0.1-15.4,7-15,15     C845.2,282.2,851.4,288.8,859.8,289z"/></g></g><g><g><path d="M497,196.9c0,26.5,0,53.1,0,79.6c0,42.1,0,84.1,0,126.2c0,9.7,0,19.3,0,29c0,7.8,6.9,15.4,15,15     c8.1-0.4,15-6.6,15-15c0-26.5,0-53.1,0-79.6c0-42.1,0-84.1,0-126.2c0-9.7,0-19.3,0-29c0-7.8-6.9-15.4-15-15     C503.9,182.3,497,188.5,497,196.9L497,196.9z"/></g></g><g><g><path d="M577.6,211.9c15.1,0,30.1,0,45.2,0c7.8,0,15.4-6.9,15-15c-0.4-8.1-6.6-15-15-15c-15.1,0-30.1,0-45.2,0     c-7.8,0-15.4,6.9-15,15C562.9,205,569.2,211.9,577.6,211.9L577.6,211.9z"/></g></g><g><g><path d="M401.3,211.9c15.1,0,30.1,0,45.2,0c7.8,0,15.4-6.9,15-15c-0.4-8.1-6.6-15-15-15c-15.1,0-30.1,0-45.2,0     c-7.8,0-15.4,6.9-15,15C386.6,205,392.9,211.9,401.3,211.9L401.3,211.9z"/></g></g><g><g><path d="M531.7,554.9c0,0.7-0.1,1.4-0.1,2.1c0,2.4,0.5-2.2,0.1,0.1c-0.3,1.3-0.6,2.6-0.9,3.9     c-0.2,0.6-0.4,1.3-0.6,1.9c0.9-2.5,0.3-0.5-0.1,0c-0.8,1.3-1.5,2.6-2.3,3.9c-1.2,1.9,1.5-1.6,0,0.1c-0.4,0.5-0.9,1-1.3,1.4     c-0.9,0.9-1.9,1.8-2.9,2.6c2.2-1.9-1.1,0.6-1.8,1c-0.6,0.3-1.2,0.6-1.7,0.9c-2.4,1.4,0.9-0.2-0.7,0.3c-1.3,0.4-2.5,0.8-3.9,1.1     c-0.7,0.1-1.3,0.3-2,0.4c2.9-0.4,0.5-0.1-0.1-0.1c-1.4,0-2.8,0-4.2-0.1c2.8,0.1-1.5-0.3-2.7-0.7c-0.9-0.3-3.7-1.4-1.4-0.3     c-1.4-0.6-2.7-1.4-4-2.2c-0.6-0.3-1.1-0.7-1.6-1.1c0.2,0.1,1.7,1.5,0.5,0.3c-1.3-1.2-2.5-2.4-3.7-3.7c-1.1-1.2,0.2,0.3,0.3,0.5     c-0.5-0.7-1-1.4-1.4-2.2c-0.7-1.1-1.3-2.3-1.8-3.5c1.1,2.5-0.2-1.1-0.5-2c-0.3-1-0.6-4.8-0.5-2c-0.1-1.6-0.1-3.2,0-4.9     c0-1.8-0.1,0.3-0.2,0.6c0.1-0.7,0.2-1.3,0.4-2c0.3-1.5,0.8-3,1.3-4.5c-0.9,2.7,0.9-1.6,1.3-2.3c0.5-0.8,2.3-3.1,0.7-1.2     c1-1.2,2-2.2,3.1-3.3c0.5-0.5,1-0.9,1.5-1.3c-0.2,0.2-1.9,1.3-0.4,0.4c1.5-0.9,3-1.8,4.5-2.6c1.5-0.8-0.3,0.1-0.6,0.2     c0.6-0.2,1.3-0.4,1.9-0.6c1.5-0.4,3-0.8,4.6-1.1c-2.6,0.4,0.5,0.1,1.5,0.1c0.9,0,1.8,0.1,2.8,0.1c-1.5-0.1-1.4-0.3,0.1,0     c1.7,0.4,3.4,0.9,5.1,1.4c-2.5-0.9,0.9,0.5,1.8,1c0.6,0.3,1.1,0.7,1.7,1c3.3,1.9-1-1,0.6,0.4c1.1,1,2.2,2.1,3.2,3.2     c1.9,1.9,0.5,0.6,0.1,0c0.5,0.7,1,1.4,1.4,2.2c0.5,0.8,2.3,5,1.3,2.3c0.5,1.5,1,3,1.3,4.5c0.1,0.4,0.4,3.2,0.3,1.4     C531.5,550.9,531.7,555,531.7,554.9c0.2,7.8,6.8,15.4,15,15c8-0.4,15.2-6.6,15-15c-0.4-21.3-13.6-39.9-33.7-47     c-18.7-6.7-41-0.4-53.7,14.8c-13.4,16.1-15.9,39.5-5,57.7c11.1,18.3,32,26.9,52.8,23.1c23.1-4.1,39.1-25.8,39.5-48.6     c0.2-7.8-7-15.4-15-15C538.4,540.3,531.8,546.5,531.7,554.9z"/></g></g></g><text x="0" y="1039" fill="#000000" font-size="5px" font-weight="bold" font-family="'Helvetica Neue', Helvetica, Arial-Unicode, Arial, Sans-serif">Created by shashank singh</text><text x="0" y="1044" fill="#000000" font-size="5px" font-weight="bold" font-family="'Helvetica Neue', Helvetica, Arial-Unicode, Arial, Sans-serif">from the Noun Project</text></svg>