<svg xmlns="http://www.w3.org/2000/svg" xmlns:xlink="http://www.w3.org/1999/xlink" xml:space="preserve" version="1.1" style="shape-rendering:geometricPrecision;text-rendering:geometricPrecision;image-rendering:optimizeQuality;" viewBox="9 0 278 375" x="0px" y="0px" fill-rule="evenodd" clip-rule="evenodd"><defs><style type="text/css">
   
    .fil0 {fill:#d3502f;fill-rule:nonzero}
   
  </style></defs><g><path class="fil0" d="M265 62l0 211c0,24 -20,43 -43,43l-146 0c-24,0 -43,-19 -43,-43l0 -211 -23 0c-13,0 -13,-20 0,-20l70 0 0 -11c0,-17 14,-31 31,-31l76 0c17,0 31,14 31,31l0 11 70 0c13,0 13,20 0,20l-23 0zm-165 -20l98 0 0 -11c0,-6 -5,-11 -11,-11l-76 0c-6,0 -11,5 -11,11l0 11zm-47 20l0 211c0,13 10,23 23,23l146 0c12,0 23,-10 23,-23l0 -211 -192 0z"/><path class="fil0" d="M97 115c0,-13 20,-13 20,0l0 127c0,13 -20,13 -20,0l0 -127z"/><path class="fil0" d="M181 115c0,-13 20,-13 20,0l0 127c0,13 -20,13 -20,0l0 -127z"/><path class="fil0" d="M139 115c0,-13 20,-13 20,0l0 127c0,13 -20,13 -20,0l0 -127z"/></g></svg>