<svg version="1.1" id="Layer_1" xmlns="http://www.w3.org/2000/svg" xmlns:xlink="http://www.w3.org/1999/xlink" x="0px" y="0px"
	 viewBox="0 0 512 512" style="enable-background:new 0 0 512 512;" xml:space="preserve">
<g transform="translate(1 1)">
	<g>
		<g>
			<path fill="#264653" d="M485.4,493.933h-51.2V7.533c0-5.12-3.413-8.533-8.533-8.533H84.333C79.213-1,75.8,2.413,75.8,7.533v486.4H24.6
				c-5.12,0-8.533,3.413-8.533,8.533S19.48,511,24.6,511h59.733h34.133h273.067h34.133H485.4c5.12,0,8.533-3.413,8.533-8.533
				S490.52,493.933,485.4,493.933z M127,493.933V50.2h256v443.733H127z M400.067,493.933V41.667c0-5.12-3.413-8.533-8.533-8.533
				H118.467c-5.12,0-8.533,3.413-8.533,8.533v452.267H92.867V16.067h324.267v477.867H400.067z"/>
			<path fill="#264653" d="M357.4,246.467h-34.133c-5.12,0-8.533,3.413-8.533,8.533v8.533h-17.067c-5.12,0-8.533,3.413-8.533,8.533
				c0,5.12,3.413,8.533,8.533,8.533h17.067v8.533c0,5.12,3.413,8.533,8.533,8.533H357.4c5.12,0,8.533-3.413,8.533-8.533V255
				C365.933,249.88,362.52,246.467,357.4,246.467z M348.867,280.6H331.8v-17.067h17.067V280.6z"/>
		</g>
	</g>
</g>
<g>
</g>
<g>
</g>
<g>
</g>
<g>
</g>
<g>
</g>
<g>
</g>
<g>
</g>
<g>
</g>
<g>
</g>
<g>
</g>
<g>
</g>
<g>
</g>
<g>
</g>
<g>
</g>
<g>
</g>
</svg>