<svg xmlns:x="http://ns.adobe.com/Extensibility/1.0/" xmlns:i="http://ns.adobe.com/AdobeIllustrator/10.0/" xmlns:graph="http://ns.adobe.com/Graphs/1.0/" xmlns="http://www.w3.org/2000/svg" xmlns:xlink="http://www.w3.org/1999/xlink" version="1.1" x="0px" y="0px" viewBox="0 0 100 100" enable-background="new 0 0 100 100" xml:space="preserve"><metadata><sfw xmlns="http://ns.adobe.com/SaveForWeb/1.0/"><slices/><sliceSourceBounds height="100" width="100" x="-0.25" y="-100" bottomLeftOrigin="true"/></sfw></metadata><rect x="-0.25" fill="none" width="100" height="100"/><g><path fill="#264653" d="M49.75,29.332l-0.285,0.286L21.869,57.214v28.167h20.453v-18.38c0-2.178,1.765-3.943,3.943-3.943h6.971   c2.178,0,3.943,1.766,3.943,3.943v18.38h20.452V57.214L50.036,29.618L49.75,29.332z"/><path fill="#264653" d="M30.768,26.213c0-2.095-1.698-3.793-3.792-3.793c-2.094,0-3.792,1.698-3.792,3.793v10.602l7.585-7.585V26.213z"/><path fill="#264653" d="M86.737,49.843l-9.106-9.106l-14.91-14.91l-9.031-9.032c-0.185-0.307-0.409-0.596-0.673-0.86l-0.003-0.002   c-0.898-0.899-2.085-1.336-3.264-1.312c-1.178-0.024-2.364,0.413-3.264,1.312l-0.002,0.002c-0.265,0.265-0.489,0.554-0.674,0.86   l-9.032,9.032l-6.01,6.01l-7.585,7.585l-1.314,1.314l-9.107,9.106c-1.75,1.751-1.75,4.589,0,6.34l0.003,0.002   c1.751,1.751,4.589,1.751,6.34,0l2.764-2.763l27.596-27.596l0.285-0.286l0.286,0.286l27.595,27.596l2.765,2.763   c1.751,1.751,4.589,1.751,6.34,0l0.002-0.002C88.489,54.433,88.489,51.595,86.737,49.843z"/></g></svg>