<svg xmlns="http://www.w3.org/2000/svg" xmlns:xlink="http://www.w3.org/1999/xlink" version="1.1" x="0px" y="0px" viewBox="0 0 100 125" style="enable-background:new 0 0 100 100;" xml:space="preserve"><g><g><rect x="23.5" y="24" width="3" height="51"/><path d="M49.79,32.73c0.55,0.33,1.1,0.66,1.64,1.01l1.08-1.68c-0.56-0.36-1.13-0.71-1.71-1.05L49.79,32.73z"/><path d="M56.09,37.13c0.5,0.41,0.98,0.82,1.46,1.25l1.33-1.5c-0.5-0.44-1.01-0.88-1.52-1.3L56.09,37.13z"/><path d="M53.03,34.8c0.53,0.37,1.04,0.75,1.55,1.13l1.21-1.59c-0.53-0.4-1.07-0.8-1.62-1.18L53.03,34.8z"/><path d="M42.87,29.36c0.6,0.23,1.19,0.48,1.78,0.74l0.8-1.83c-0.61-0.27-1.23-0.52-1.85-0.77L42.87,29.36z"/><path d="M46.4,30.91c0.58,0.28,1.15,0.57,1.72,0.88l0.94-1.76c-0.59-0.32-1.18-0.62-1.78-0.91L46.4,30.91z"/><path d="M27.9,26.08c0.64,0.04,1.28,0.09,1.92,0.15l0.2-1.99c-0.66-0.07-1.33-0.12-2-0.16L27.9,26.08z"/><path d="M31.73,26.46c0.64,0.09,1.27,0.19,1.9,0.3l0.35-1.97c-0.66-0.12-1.31-0.22-1.98-0.31L31.73,26.46z"/><path d="M39.23,28.1c0.62,0.19,1.23,0.39,1.83,0.6l0.65-1.89c-0.63-0.22-1.27-0.43-1.91-0.62L39.23,28.1z"/><path d="M35.51,27.13c0.63,0.14,1.25,0.29,1.87,0.45l0.5-1.94c-0.64-0.17-1.29-0.32-1.95-0.46L35.51,27.13z"/><path d="M63.13,41.12l-1.49,1.33c0.43,0.48,0.84,0.97,1.25,1.46l1.54-1.27C64,42.13,63.57,41.62,63.13,41.12z"/><path d="M75.2,65.98l-1.97,0.35c0.11,0.63,0.21,1.26,0.3,1.9l1.98-0.27C75.43,67.29,75.32,66.63,75.2,65.98z"/><path d="M74.35,62.07l-1.94,0.51c0.16,0.62,0.31,1.24,0.45,1.87l1.95-0.43C74.67,63.36,74.51,62.71,74.35,62.07z"/><path d="M73.18,58.24l-1.89,0.66c0.21,0.6,0.41,1.21,0.6,1.83l1.91-0.58C73.61,59.5,73.4,58.87,73.18,58.24z"/><path d="M75.75,69.94l-1.99,0.2c0.06,0.64,0.11,1.27,0.15,1.92l2-0.12C75.87,71.27,75.82,70.6,75.75,69.94z"/><path d="M60.35,38.24l-1.38,1.44c0.46,0.44,0.92,0.9,1.36,1.36l1.44-1.39C61.3,39.18,60.83,38.7,60.35,38.24z"/><path d="M67.95,47.49l-1.68,1.08c0.35,0.54,0.68,1.08,1.01,1.64L69,49.19C68.66,48.62,68.31,48.05,67.95,47.49z"/><path d="M65.66,44.22l-1.59,1.21c0.39,0.51,0.76,1.03,1.13,1.55l1.64-1.15C66.46,45.29,66.07,44.75,65.66,44.22z"/><path d="M71.72,54.53l-1.83,0.8c0.26,0.58,0.5,1.18,0.74,1.77l1.86-0.73C72.25,55.75,71.99,55.13,71.72,54.53z"/><path d="M69.98,50.94l-1.76,0.94c0.3,0.56,0.59,1.13,0.88,1.71l1.8-0.88C70.59,52.11,70.29,51.52,69.98,50.94z"/><path d="M75.99,73.98l-2,0.04C74,74.34,74,74.67,74,75h2C76,74.66,76,74.32,75.99,73.98z"/></g></g><text x="0" y="115" fill="#000000" font-size="5px" font-weight="bold" font-family="'Helvetica Neue', Helvetica, Arial-Unicode, Arial, Sans-serif">Created by Aidan Cooke</text><text x="0" y="120" fill="#000000" font-size="5px" font-weight="bold" font-family="'Helvetica Neue', Helvetica, Arial-Unicode, Arial, Sans-serif">from the Noun Project</text></svg>