<svg xmlns="http://www.w3.org/2000/svg" xmlns:xlink="http://www.w3.org/1999/xlink" version="1.1" x="0px" y="0px" viewBox="0 0 100 125" style="enable-background:new 0 0 100 100;" xml:space="preserve"><path d="M29.6679688,58.3862305V47.5366211c0-0.5522461-0.4472656-1-1-1h-8.6074219c-0.5527344,0-1,0.4477539-1,1v10.8496094  c0,0.5522461,0.4472656,1,1,1h8.6074219C29.2207031,59.3862305,29.6679688,58.9384766,29.6679688,58.3862305z   M27.6679688,57.3862305h-6.6074219v-8.8496094h6.6074219V57.3862305z"/><path d="M34.7441406,59.3862305h8.6074219c0.5527344,0,1-0.4477539,1-1V47.5366211c0-0.5522461-0.4472656-1-1-1h-8.6074219  c-0.5527344,0-1,0.4477539-1,1v10.8496094C33.7441406,58.9384766,34.1914062,59.3862305,34.7441406,59.3862305z   M35.7441406,48.5366211h6.6074219v8.8496094h-6.6074219V48.5366211z"/><path d="M20.0605469,42.3051758h8.6074219c0.5527344,0,1-0.4477539,1-1V30.4555664c0-0.5522461-0.4472656-1-1-1h-8.6074219  c-0.5527344,0-1,0.4477539-1,1v10.8496094C19.0605469,41.8574219,19.5078125,42.3051758,20.0605469,42.3051758z   M21.0605469,31.4555664h6.6074219v8.8496094h-6.6074219V31.4555664z"/><path d="M34.7441406,42.3051758h8.6074219c0.5527344,0,1-0.4477539,1-1V30.4555664c0-0.5522461-0.4472656-1-1-1h-8.6074219  c-0.5527344,0-1,0.4477539-1,1v10.8496094C33.7441406,41.8574219,34.1914062,42.3051758,34.7441406,42.3051758z   M35.7441406,31.4555664h6.6074219v8.8496094h-6.6074219V31.4555664z"/><path d="M89,40.3051758H51V24c0-0.4233398-0.2666016-0.8007812-0.6650391-0.9423828l-36.5878906-13  c-0.3085938-0.1088867-0.6455078-0.0610352-0.9121094,0.1254883C12.5703125,10.3706055,12.4121094,10.675293,12.4121094,11v77H11  c-0.5527344,0-1,0.4477539-1,1s0.4472656,1,1,1h78c0.5527344,0,1-0.4477539,1-1s-0.4472656-1-1-1h-1.4121094V54.3007812H89  c0.5527344,0,1-0.4477539,1-1V41.3051758C90,40.7529297,89.5527344,40.3051758,89,40.3051758z M14.4121094,12.4165039L49,24.7060547  V88H32.7060547v-7.8499146c4.3936768-0.4987183,7.8203125-4.2342529,7.8203125-8.7594604  c0-4.8632812-3.9570312-8.8198242-8.8203125-8.8198242s-8.8193359,3.956543-8.8193359,8.8198242  c0,4.5252075,3.4257812,8.2607422,7.8193359,8.7594604V88H14.4121094V12.4165039z M31.7060547,78.2109375  c-3.7597656,0-6.8193359-3.0595703-6.8193359-6.8203125c0-3.7602539,3.0595703-6.8198242,6.8193359-6.8198242  c3.7607422,0,6.8203125,3.0595703,6.8203125,6.8198242C38.5263672,75.1513672,35.4667969,78.2109375,31.7060547,78.2109375z   M58.7402344,72.3144531h18.7666016v6.8427734H58.7402344V72.3144531z M77.5068359,70.3144531H58.7402344v-6.8427734h18.7666016  V70.3144531z M58.7402344,81.1572266h18.7666016V88H58.7402344V81.1572266z M85.5878906,88h-6.0810547V62.4716797  c0-0.5522461-0.4472656-1-1-1H57.7402344c-0.5527344,0-1,0.4477539-1,1V88H51V54.3007812h34.5878906V88z M88,52.3007812H51  v-9.9956055h37V52.3007812z"/><path d="M69.3193359,83.5786133h-2.3916016c-0.5527344,0-1,0.4477539-1,1s0.4472656,1,1,1h2.3916016c0.5527344,0,1-0.4477539,1-1  S69.8720703,83.5786133,69.3193359,83.5786133z"/><text x="0" y="115" fill="#000000" font-size="5px" font-weight="bold" font-family="'Helvetica Neue', Helvetica, Arial-Unicode, Arial, Sans-serif">Created by Made x Made</text><text x="0" y="120" fill="#000000" font-size="5px" font-weight="bold" font-family="'Helvetica Neue', Helvetica, Arial-Unicode, Arial, Sans-serif">from the Noun Project</text></svg>