<svg xmlns="http://www.w3.org/2000/svg" xmlns:xlink="http://www.w3.org/1999/xlink" xml:space="preserve" version="1.1" style="shape-rendering:geometricPrecision;text-rendering:geometricPrecision;image-rendering:optimizeQuality;" viewBox="0 0 60000 75000" x="0px" y="0px" fill-rule="evenodd" clip-rule="evenodd"><defs><style type="text/css">
   
    .fil0 {fill:#264653;fill-rule:nonzero}
   
  </style></defs><g><path class="fil0" d="M37044.74 52891.68c156.19,-156.19 409.43,-156.19 565.62,0 156.19,156.19 156.19,409.43 0,565.62l-4680.82 4680.82c-685.63,685.64 -1176.87,1048.32 -1734.09,1064.23 -560.18,16 -1071.79,-321.11 -1786.34,-1035.64l0.78 -0.78 -1790.69 -1790.21c-467.59,327.57 -869.87,425.34 -1314.86,302.89 -440.86,-121.31 -865.45,-462.47 -1419.32,-1016.34l-6842.73 -6842.73c-553.86,-553.85 -895.03,-978.45 -1016.34,-1419.32 -122.34,-444.58 -24.86,-846.56 302.01,-1313.61l-1855.14 -1855.92c-4646.81,-4644.13 -9290.65,-9291.23 -13935.49,-13937.32l-0.78 0.78c-714.53,-714.53 -1051.64,-1226.15 -1035.65,-1786.33 15.92,-557.23 378.62,-1048.47 1064.24,-1734.1l1944.55 -1944.54c-326.6,-466.85 -423.98,-868.69 -301.68,-1313.13 121.31,-440.87 462.47,-865.46 1016.33,-1419.32l6842.72 -6842.74c553.87,-553.86 978.48,-895.04 1419.33,-1016.33 444.45,-122.3 846.29,-24.91 1313.13,301.69l12677.45 -12677.46c685.63,-685.63 1176.86,-1048.32 1734.1,-1064.24 560.17,-16 1071.8,321.1 1786.33,1035.65l1.57 3.12 1618.65 1647.7 1327.69 -1327.7c685.62,-685.63 1176.87,-1048.31 1734.08,-1064.22 560.18,-16 1071.81,321.11 1786.34,1035.64l-0.78 0.78 575.11 574.96c156.19,155.33 156.89,407.87 1.56,564.06 -155.33,156.19 -407.87,156.89 -564.06,1.56l-575.89 -575.74 -1.56 0c-551.43,-551.43 -904.5,-812.79 -1198.84,-804.38 -297.28,8.48 -650.49,293.11 -1190.34,832.96l-1332.72 1332.72 3350.67 3410.79c154.46,157.05 152.36,409.61 -4.69,564.07 -157.05,154.46 -409.61,152.36 -564.07,-4.69l-5527.59 -5626.76 -0.75 0.75c-551.43,-551.44 -904.5,-812.8 -1198.83,-804.39 -297.29,8.49 -650.5,293.12 -1190.36,832.98l-9122.74 9122.74 5935.06 5932.11c156.19,155.33 156.89,407.87 1.56,564.06 -155.33,156.19 -407.87,156.89 -564.06,1.56l-5936.62 -5933.67 -4514.4 4514.41c-156.19,156.19 -409.43,156.19 -565.62,0 -156.19,-156.19 -156.19,-409.43 0,-565.62l947.32 -947.32c-201.63,-118.23 -368.06,-153.18 -527.32,-109.36 -273.37,75.21 -602.25,352.36 -1063.09,813.19l-6842.72 6842.74c-460.82,460.82 -737.97,789.71 -813.19,1063.08 -43.82,159.25 -8.88,325.69 109.35,527.32l874.03 -874.03c156.19,-156.19 409.43,-156.19 565.62,0 156.19,156.19 156.19,409.43 0,565.62l-3395.01 3395c-539.86,539.87 -824.49,893.08 -832.98,1190.36 -8.4,294.33 252.95,647.39 804.39,1198.83l0 1.56 8949.09 8951.5 4958.21 -4958.23c156.19,-156.19 409.43,-156.19 565.62,0 156.19,156.19 156.19,409.43 0,565.62l-4958.29 4958.31 2143.22 2143.79c1776.53,1775.5 3552.39,3551.62 5328.03,5328.01 155.33,156.19 154.63,408.73 -1.56,564.06 -156.19,155.33 -408.73,154.63 -564.06,-1.56l-618.16 -618.42c-118.4,201.79 -153.41,368.32 -109.56,527.67 75.22,273.37 352.38,602.27 813.2,1063.08l6842.73 6842.73c460.83,460.83 789.72,737.98 1063.08,813.2 159.71,43.95 326.64,8.67 529.07,-110.39l-455.33 -455.21c-156.19,-155.33 -156.89,-407.87 -1.56,-564.06 155.33,-156.19 407.87,-156.89 564.06,-1.56l2823.21 2822.46 1.56 0c551.44,551.43 904.5,812.79 1198.84,804.38 297.27,-8.48 650.49,-293.1 1190.35,-832.97l4680.82 -4680.82zm21607.16 -20710.81l370.53 370.53c396.89,396.89 531.41,730.28 458.14,1100.28 -64.71,326.82 -293.27,607.13 -644.75,958.59l-4803.87 4803.87c-351.49,351.48 -631.79,580.05 -958.61,644.76 -370,73.27 -703.38,-61.24 -1100.27,-458.13l-370.53 -370.53 -23.48 23.49c-351.48,351.47 -631.77,580.05 -958.61,644.76 -369.98,73.27 -703.36,-61.25 -1100.27,-458.14l-356.92 -356.92c-306.16,295.79 -563.47,488.05 -858.78,546.53 -369.99,73.26 -703.38,-61.27 -1100.26,-458.15l-238.7 -238.7 -826.5 826.5 838.48 838.71 0.78 -0.78c714.53,714.53 1051.64,1226.14 1035.65,1786.33 -15.91,557.23 -378.59,1048.47 -1064.23,1734.11l-4680.82 4680.8c-156.19,156.19 -409.43,156.19 -565.62,0 -156.19,-156.19 -156.19,-409.43 0,-565.62l4680.82 -4680.8c539.86,-539.86 824.49,-893.08 832.97,-1190.37 8.4,-294.35 -252.96,-647.4 -804.39,-1198.83l0 -1.56 -1101.1 -1101.4c-6.83,-5.97 -13.54,-12.19 -20.05,-18.7 -6.54,-6.54 -12.79,-13.26 -18.78,-20.13l-10517.93 -10520.76 -2275.93 -2274.65 -189.19 -188.79c-20.8,-13.84 -40.62,-29.83 -59.1,-48 -19.94,-19.61 -37.37,-40.8 -52.31,-63.18l-2128.52 -2124.05c-156.19,-155.33 -156.89,-407.87 -1.56,-564.06 155.33,-156.19 407.87,-156.89 564.06,-1.56l1901.25 1897.26 2892.75 -2932.01c154.46,-157.05 407.02,-159.15 564.07,-4.69 157.05,154.46 159.15,407.02 4.69,564.07l-2896.84 2936.17c4166.5,4164.2 8330.68,8330.72 12495.33,12496.77l12204.64 -12204.64c539.84,-539.84 824.47,-893.06 832.95,-1190.35 8.41,-294.34 -252.95,-647.41 -804.38,-1198.84l0 -1.56 -1688.29 -1688.74c-155.33,-156.19 -154.63,-408.73 1.56,-564.06 156.19,-155.33 408.73,-154.63 564.06,1.56l773.58 773.78c119.09,-202.45 154.36,-369.39 110.42,-529.11 -75.22,-273.37 -352.37,-602.26 -813.2,-1063.09l-6842.74 -6842.72c-460.81,-460.82 -789.7,-737.98 -1063.07,-813.2 -159.3,-43.83 -325.79,-8.85 -527.51,109.47l897.24 897.43c155.33,156.19 154.63,408.73 -1.56,564.06 -156.19,155.33 -408.73,154.63 -564.06,-1.56l-1797.38 -1797.9 -361.62 -361.51 -2794.16 2774.29c-17.83,32.21 -40.43,62.48 -67.85,89.74 -27.57,27.42 -58.15,49.96 -90.67,67.66l-2831.32 2811.18c-156.19,155.33 -408.73,154.63 -564.06,-1.56 -155.33,-156.19 -154.63,-408.73 1.56,-564.06l2628.15 -2609.46 -3640.26 -3670.07c-155.33,-156.19 -154.63,-408.73 1.56,-564.06 156.19,-155.33 408.73,-154.63 564.06,1.56l3640.71 3670.53 2588.14 -2569.74 -951.04 -950.76c-156.19,-155.33 -156.89,-407.87 -1.56,-564.06 155.33,-156.19 407.87,-156.89 564.06,-1.56l1231.2 1230.96c1.76,1.7 3.52,3.41 5.25,5.15l3.26 3.36 963.96 963.93c466.92,-326.68 868.8,-424.09 1313.28,-301.78 440.88,121.31 865.46,462.48 1419.31,1016.34l6842.74 6842.72c553.87,553.87 895.03,978.46 1016.34,1419.33 122.44,445.01 24.66,847.29 -302.93,1314.9l337.68 337.77 0.78 -0.78c714.53,714.53 1051.64,1226.16 1035.64,1786.34 -15.74,551.2 -370.83,1037.85 -1042.12,1711.93l238.73 238.74c396.89,396.89 531.42,730.26 458.15,1100.27 -58.12,293.53 -248.45,549.56 -541.26,853.31l357.01 357.03c396.9,396.89 531.42,730.28 458.16,1100.26 -64.72,326.83 -293.29,607.12 -644.77,958.58l-39.97 39.97zm-6483.74 6483.75l370.53 370.53c184.88,184.88 299.63,255.59 381.53,239.37 125.06,-24.76 300.53,-180.43 546.11,-426l4803.87 -4803.87c245.57,-245.56 401.23,-421.02 425.99,-546.09 16.22,-81.9 -54.49,-196.65 -239.38,-381.54l-370.53 -370.53 -5918.12 5918.13zm-2438.48 -146.01l356.12 356.12c184.89,184.89 299.64,255.6 381.53,239.38 125.07,-24.76 300.53,-180.43 546.11,-426l7112.81 -7112.83c245.58,-245.56 401.25,-421.02 426.01,-546.08 16.21,-81.89 -54.49,-196.62 -239.4,-381.52l-356.11 -356.14 -8227.07 8227.07zm-2198.54 -151.12l238.7 238.7c184.9,184.9 299.63,255.6 381.52,239.39 125.07,-24.76 300.53,-180.43 546.11,-426l9154.88 -9154.88c245.58,-245.57 401.24,-421.03 426,-546.1 16.22,-81.9 -54.5,-196.64 -239.39,-381.53l-238.7 -238.7 -10269.12 10269.12zm-10230.06 -34486.53c-97.62,-97.08 -98.06,-254.92 -0.98,-352.54 97.08,-97.62 254.92,-98.06 352.54,-0.98l7036.59 7034.63c97.62,97.08 98.06,254.92 0.98,352.54 -97.08,97.62 -254.92,98.06 -352.54,0.98l-7036.59 -7034.63zm-30805.74 21059.55c-97.62,97.62 -255.9,97.62 -353.52,0 -97.62,-97.62 -97.62,-255.9 0,-353.52l7402.99 -7402.99c97.62,-97.62 255.9,-97.62 353.52,0 97.62,97.62 97.62,255.9 0,353.52l-7402.99 7402.99zm-194.51 -1983.34c-97.62,97.62 -255.9,97.62 -353.52,0 -97.62,-97.62 -97.62,-255.9 0,-353.52l5614.15 -5614.14c97.62,-97.62 255.9,-97.62 353.52,0 97.62,97.62 97.62,255.9 0,353.52l-5614.15 5614.14zm49102.16 496.33c97.62,97.62 97.62,255.9 0,353.52 -97.62,97.62 -255.9,97.62 -353.52,0l-7403.01 -7403c-97.62,-97.62 -97.62,-255.9 0,-353.52 97.62,-97.62 255.9,-97.62 353.52,0l7403.01 7403zm194.48 -1983.36c97.62,97.62 97.62,255.9 0,353.52 -97.62,97.62 -255.9,97.62 -353.52,0l-5614.13 -5614.13c-97.62,-97.62 -97.62,-255.9 0,-353.52 97.62,-97.62 255.9,-97.62 353.52,0l5614.13 5614.13zm-27868.66 31921.13c97.62,97.62 97.62,255.9 0,353.52 -97.62,97.62 -255.9,97.62 -353.52,0l-7403 -7403c-97.62,-97.62 -97.62,-255.9 0,-353.52 97.62,-97.62 255.9,-97.62 353.52,0l7403 7403zm-1983.35 194.48c97.62,97.62 97.62,255.9 0,353.52 -97.62,97.62 -255.9,97.62 -353.52,0l-5614.14 -5614.12c-97.62,-97.62 -97.62,-255.9 0,-353.52 97.62,-97.62 255.9,-97.62 353.52,0l5614.14 5614.12z"/></g></svg>