<svg height="512pt" viewBox="0 0 512 512.00001" width="512pt" xmlns="http://www.w3.org/2000/svg"><path d="m503.464844 17.066406c4.714844 0 8.535156-3.820312 8.535156-8.53125 0-4.714844-3.820312-8.535156-8.535156-8.535156h-220.546875c-8.453125-.0078125-16.609375 3.132812-22.875 8.804688l-245.96875 222.160156c-8.953125 8.09375-14.0664065 19.597656-14.074219 31.667968v27.5c0 4.714844 3.820312 8.535157 8.535156 8.535157 4.710938 0 8.53125-3.820313 8.53125-8.535157v-27.5c.007813-7.242187 3.074219-14.140624 8.441406-19l34.226563-30.914062v196.882812h-51.199219c-4.714844 0-8.535156 3.820313-8.535156 8.53125 0 4.714844 3.820312 8.535157 8.535156 8.535157h8.53125v68.265625c.011719 9.421875 7.644532 17.054687 17.066406 17.066406h460.800782c9.421875-.011719 17.054687-7.644531 17.066406-17.066406v-324.265625c-.011719-9.421875-7.644531-17.058594-17.066406-17.066407h-51.199219v-136.535156zm-220.546875 0h58.414062v136.535156h-51.199219c-4.710937 0-8.53125 3.820313-8.53125 8.53125 0 4.714844 3.820313 8.535157 8.53125 8.535157h8.535157v59.730469c-.003907 4.710937-3.824219 8.53125-8.535157 8.535156h-25.597656v-211.191406l6.949219-6.277344c3.132813-2.835938 7.207031-4.402344 11.433594-4.398438zm-69.585938 221.867188h-17.066406c-4.710937 0-8.53125 3.820312-8.53125 8.53125 0 4.714844 3.820313 8.535156 8.53125 8.535156h8.535156v59.734375c-.003906 4.710937-3.824219 8.527344-8.535156 8.53125h-25.597656v-211.742187l76.796875-69.363282v195.773438zm-136.53125-41.628906 76.800781-69.363282v196.324219h-51.203124c-4.710938 0-8.53125 3.820313-8.53125 8.535156 0 4.710938 3.820312 8.53125 8.53125 8.53125h8.535156v59.734375c-.003906 4.710938-3.824219 8.53125-8.535156 8.535156h-25.597657zm264.53125 297.628906c-9.417969-.011719-17.054687-7.644532-17.066406-17.066406v-51.199219h85.335937v51.199219c-.011718 9.421874-7.648437 17.054687-17.066406 17.066406zm8.316407-122.433594c-18.144532-5.808594-34.359376-16.464844-46.886719-30.824219-11.414063-15.257812-18.457031-33.335937-20.367188-52.296875 18.152344 5.800782 34.367188 16.460938 46.894531 30.820313 11.410157 15.261719 18.449219 33.339843 20.359376 52.300781zm3.460937-46.824219c-.347656-4.75-.296875-9.523437.140625-14.265625 2.808594-21.066406 11.40625-40.941406 24.832031-57.414062 10.050781 18.714844 14.738281 39.839844 13.542969 61.050781-.289062 3.046875-.785156 6.070313-1.484375 9.050781-5.214844 9.664063-9.109375 19.980469-11.570313 30.679688-.046874.109375-.039062.226562-.082031.339844-1.558593 6.699218-2.636719 13.5-3.214843 20.347656h-8.144532c-1.375-17.351563-6.136718-34.269532-14.019531-49.789063zm60.007813-5.472656c12.550781-14.339844 28.769531-24.988281 46.917968-30.804687-1.90625 18.960937-8.957031 37.039062-20.394531 52.277343-12.554687 14.339844-28.773437 24.988281-46.917969 30.808594 1.90625-18.960937 8.957032-37.039063 20.394532-52.28125zm13.550781 72.332031.007812 17.066406h-119.476562v-17.066406zm68.265625 102.398438h-73.015625c3.074219-5.164063 4.714843-11.058594 4.75-17.066406v-51.199219c9.417969-.011719 17.054687-7.648438 17.066406-17.066407v-17.066406c-.011719-9.421875-7.648437-17.058594-17.066406-17.070312h-.332031c10.082031-6.144532 19.0625-13.9375 26.574218-23.046875 16-21.632813 24.738282-47.773438 24.957032-74.679688-.042969-2.523437-1.199219-4.902343-3.160157-6.492187-1.964843-1.585938-4.527343-2.226563-7.007812-1.742188-21.890625 4.972656-42.15625 15.433594-58.886719 30.398438-2.007812-23.28125-9.664062-45.722656-22.304688-65.375-1.425781-2.082032-3.703124-3.425782-6.214843-3.667969-2.511719-.230469-4.996094.652344-6.800781 2.414063-18.617188 19.371093-31.25 43.710937-36.375 70.085937-17.273438-16.839844-38.882813-28.558594-62.417969-33.851563-2.476563-.484374-5.042969.152344-7.003907 1.742188-1.960937 1.589844-3.117187 3.964844-3.160156 6.488281.214844 26.90625 8.953125 53.046875 24.957032 74.679688 7.507812 9.109375 16.488281 16.902343 26.570312 23.046875h-8.863281c-9.421875.011718-17.054688 7.648437-17.066407 17.070312v17.066406c.011719 9.417969 7.644532 17.054688 17.066407 17.066407v51.199219c.035156 6.007812 1.675781 11.902343 4.746093 17.066406h-277.8125v-68.265625h68.265626c14.132812-.015625 25.585937-11.46875 25.601562-25.601563v-59.734375h68.265625c14.132813-.015625 25.585937-11.464843 25.601563-25.597656v-59.734375h68.265624c14.132813-.015625 25.585938-11.46875 25.601563-25.601562v-59.730469h34.144531l85.28125-.007813.039063.007813.042969-.011719h59.691406zm-68.265625-341.332032h-68.269531v-136.535156h68.269531zm0 0"/><path d="m384 469.332031h-34.132812c-4.714844 0-8.535157 3.820313-8.535157 8.535157 0 4.710937 3.820313 8.53125 8.535157 8.53125h34.132812c4.710938 0 8.535156-3.820313 8.535156-8.53125 0-4.714844-3.824218-8.535157-8.535156-8.535157zm0 0"/></svg>